<svg aria-hidden="true" style="position: absolute; width: 0; height: 0; overflow: hidden;" version="1.1" xmlns="http://www.w3.org/2000/svg" xmlns:xlink="http://www.w3.org/1999/xlink">
<defs>
<symbol id="icon-calendar" viewBox="0 0 28 32">
<path d="M21.080 18.25v1.5c0 0.413-0.337 0.75-0.75 0.75h-4.75v4.75c0 0.413-0.338 0.75-0.75 0.75h-1.5c-0.412 0-0.75-0.337-0.75-0.75v-4.75h-4.75c-0.412 0-0.75-0.337-0.75-0.75v-1.5c0-0.413 0.338-0.75 0.75-0.75h4.75v-4.75c0-0.412 0.338-0.75 0.75-0.75h1.5c0.412 0 0.75 0.338 0.75 0.75v4.75h4.75c0.413 0 0.75 0.337 0.75 0.75zM28.080 7v22c0 1.656-1.344 3-3 3h-22c-1.656 0-3-1.344-3-3v-22c0-1.656 1.344-3 3-3h3v-3.25c0-0.412 0.338-0.75 0.75-0.75h2.5c0.412 0 0.75 0.338 0.75 0.75v3.25h8v-3.25c0-0.412 0.337-0.75 0.75-0.75h2.5c0.413 0 0.75 0.338 0.75 0.75v3.25h3c1.656 0 3 1.344 3 3zM25.080 28.625v-18.625h-22v18.625c0 0.206 0.169 0.375 0.375 0.375h21.25c0.206 0 0.375-0.169 0.375-0.375z"></path>
</symbol>
<symbol id="icon-video-solid" viewBox="0 0 36 32">
<path d="M21.012 4h-18.025c-1.65 0-2.987 1.338-2.987 2.987v18.025c0 1.65 1.337 2.988 2.987 2.988h18.025c1.65 0 2.988-1.337 2.988-2.988v-18.025c0-1.65-1.337-2.987-2.988-2.987zM32.85 6.356l-6.85 4.725v9.838l6.85 4.719c1.325 0.913 3.15-0.019 3.15-1.613v-16.056c0-1.588-1.819-2.525-3.15-1.612z"></path>
</symbol>
</defs>
</svg>
